<svg xmlns="http://www.w3.org/2000/svg" xmlns:xlink="http://www.w3.org/1999/xlink" version="1.1" x="0px" y="0px" viewBox="0 0 25 31.25" enable-background="new 0 0 25 25" xml:space="preserve"><g><g><path d="M19,2.5H7.5v20H19c1.378,0,2.5-1.121,2.5-2.5V5C21.5,3.621,20.378,2.5,19,2.5z M17,11.5h-6c-0.276,0-0.5-0.224-0.5-0.5    s0.224-0.5,0.5-0.5h6c0.276,0,0.5,0.224,0.5,0.5S17.276,11.5,17,11.5z M17,8.5h-6c-0.276,0-0.5-0.224-0.5-0.5s0.224-0.5,0.5-0.5h6    c0.276,0,0.5,0.224,0.5,0.5S17.276,8.5,17,8.5z"/><path d="M3.5,3v19c0,0.276,0.224,0.5,0.5,0.5h2.5v-20H4C3.724,2.5,3.5,2.724,3.5,3z"/></g></g><text x="0" y="40" fill="#000000" font-size="5px" font-weight="bold" font-family="'Helvetica Neue', Helvetica, Arial-Unicode, Arial, Sans-serif">Created by Ralf Schmitzer</text><text x="0" y="45" fill="#000000" font-size="5px" font-weight="bold" font-family="'Helvetica Neue', Helvetica, Arial-Unicode, Arial, Sans-serif">from the Noun Project</text></svg>