<?xml version="1.0" encoding="utf-8"?>
<!-- Generator: Adobe Illustrator 23.0.1, SVG Export Plug-In . SVG Version: 6.00 Build 0)  -->
<svg version="1.1" id="Warstwa_1" xmlns="http://www.w3.org/2000/svg" xmlns:xlink="http://www.w3.org/1999/xlink" x="0px" y="0px"
	 viewBox="0 0 120 150" style="enable-background:new 0 0 120 150;" xml:space="preserve">
<title>04 Developers Option</title>
<path d="M32.1,38L10,60l7.6,7.6L32.1,82l7.7-7.6L25.3,60l14.4-14.4L32.1,38z M36.9,74.5l-4.8,4.8l-13-13L12.8,60l19.2-19.2l4.8,4.8
	L22.5,60L36.9,74.5z"/>
<path d="M87.9,38l-7.7,7.6L94.7,60L80.3,74.4l7.7,7.6l14.4-14.4L110,60L87.9,38z M100.9,66.3l-13,13l-4.8-4.8L97.5,60L83.1,45.6
	l4.8-4.8L107.2,60L100.9,66.3z"/>
<path d="M46.5,89.6l10.5,2.8l16.6-62l-10.4-2.8L46.5,89.6z M71.1,31.8L55.5,90l-6.6-1.8L64.5,30L71.1,31.8z"/>
</svg>
